# xmcd
#
# Track frame offsets:
#	150
#	17576
#	34013
#	49545
#	64483
#	79843
#	96780
#	110261
#	128791
#	141704
#
# Disc length: 2186 seconds
#
# Revision: 0
# Processed by: cddbd v1.4PL0 Copyright (c) Steve Scherf et al.
# Submitted via: dBpowerAMP V4.0
#
DISCID=8608880a
DTITLE=Fit 2-B Tied - One Step Over The Line
DYEAR=1900
DGENRE=Country
TTITLE0=One Step Over The Line
TTITLE1=Just a Simple Man
TTITLE2=Every Town In Texas
TTITLE3=50 Miles 2 Dalton
TTITLE4=Daddy Raised Hell
TTITLE5=Rollin' Through Carolina
TTITLE6=Fit 2-B Tied
TTITLE7=Twilight Zone
TTITLE8=BullCalled Hell
TTITLE9=The Campfire Song
EXTD=Fit 2 - B Tied
EXTT0=
EXTT1=
EXTT2=
EXTT3=
EXTT4=
EXTT5=
EXTT6=
EXTT7=
EXTT8=
EXTT9=
PLAYORDER=
